<mxfile host="65bd71144e" modified="2020-11-06T03:01:44.208Z" agent="5.0 (Macintosh; Intel Mac OS X 10_15_7) AppleWebKit/537.36 (KHTML, like Gecko) Code/1.50.1 Chrome/83.0.4103.122 Electron/9.2.1 Safari/537.36" etag="SrlqPqrvsOA1MgUXsjdx" version="13.6.5">
    <diagram id="O86yYPd9in7EFKKt68wJ" name="Page-1">
        <mxGraphModel dx="668" dy="629" grid="1" gridSize="10" guides="1" tooltips="1" connect="1" arrows="1" fold="1" page="1" pageScale="1" pageWidth="827" pageHeight="1169" background="#F4F1DE" math="0" shadow="0">
            <root>
                <mxCell id="0"/>
                <mxCell id="1" parent="0"/>
                <mxCell id="VhhajVRdx0y6rinKYNHM-5" value="" style="edgeStyle=orthogonalEdgeStyle;orthogonalLoop=1;jettySize=auto;html=1;entryX=1;entryY=0.5;entryDx=0;entryDy=0;strokeColor=#E07A5F;fontColor=#393C56;labelBackgroundColor=#F4F1DE;" parent="1" source="VhhajVRdx0y6rinKYNHM-1" target="VhhajVRdx0y6rinKYNHM-4" edge="1">
                    <mxGeometry relative="1" as="geometry">
                        <mxPoint x="274" y="240" as="targetPoint"/>
                    </mxGeometry>
                </mxCell>
                <mxCell id="VhhajVRdx0y6rinKYNHM-11" value="" style="edgeStyle=orthogonalEdgeStyle;orthogonalLoop=1;jettySize=auto;html=1;strokeColor=#E07A5F;fontColor=#393C56;labelBackgroundColor=#F4F1DE;" parent="1" source="VhhajVRdx0y6rinKYNHM-1" edge="1">
                    <mxGeometry relative="1" as="geometry">
                        <mxPoint x="374" y="160" as="targetPoint"/>
                    </mxGeometry>
                </mxCell>
                <mxCell id="VhhajVRdx0y6rinKYNHM-23" value="" style="edgeStyle=orthogonalEdgeStyle;orthogonalLoop=1;jettySize=auto;html=1;startSize=0;endSize=6;strokeColor=#E07A5F;fontColor=#393C56;labelBackgroundColor=#F4F1DE;exitX=1;exitY=0.25;exitDx=0;exitDy=0;entryX=0;entryY=0.25;entryDx=0;entryDy=0;" parent="1" source="VhhajVRdx0y6rinKYNHM-1" target="VhhajVRdx0y6rinKYNHM-22" edge="1">
                    <mxGeometry relative="1" as="geometry">
                        <mxPoint x="470" y="240" as="sourcePoint"/>
                        <mxPoint x="474" y="230" as="targetPoint"/>
                    </mxGeometry>
                </mxCell>
                <mxCell id="VhhajVRdx0y6rinKYNHM-1" value="&lt;font style=&quot;vertical-align: inherit&quot;&gt;&lt;font style=&quot;vertical-align: inherit&quot;&gt;TOPページ&lt;/font&gt;&lt;/font&gt;" style="whiteSpace=wrap;html=1;fillColor=#F2CC8F;strokeColor=#E07A5F;fontColor=#393C56;" parent="1" vertex="1">
                    <mxGeometry x="314" y="220" width="120" height="40" as="geometry"/>
                </mxCell>
                <mxCell id="VhhajVRdx0y6rinKYNHM-9" style="edgeStyle=orthogonalEdgeStyle;orthogonalLoop=1;jettySize=auto;html=1;exitX=0.5;exitY=1;exitDx=0;exitDy=0;entryX=0.5;entryY=1;entryDx=0;entryDy=0;rounded=0;strokeColor=#E07A5F;fontColor=#393C56;labelBackgroundColor=#F4F1DE;" parent="1" source="VhhajVRdx0y6rinKYNHM-4" target="VhhajVRdx0y6rinKYNHM-1" edge="1">
                    <mxGeometry relative="1" as="geometry">
                        <mxPoint x="384" y="210" as="targetPoint"/>
                        <Array as="points">
                            <mxPoint x="204" y="310"/>
                            <mxPoint x="374" y="310"/>
                        </Array>
                    </mxGeometry>
                </mxCell>
                <mxCell id="VhhajVRdx0y6rinKYNHM-4" value="&lt;font style=&quot;vertical-align: inherit&quot;&gt;&lt;font style=&quot;vertical-align: inherit&quot;&gt;&lt;font style=&quot;vertical-align: inherit&quot;&gt;&lt;font style=&quot;vertical-align: inherit&quot;&gt;サインインページ&lt;/font&gt;&lt;/font&gt;&lt;/font&gt;&lt;/font&gt;" style="whiteSpace=wrap;html=1;fillColor=#F2CC8F;strokeColor=#E07A5F;fontColor=#393C56;" parent="1" vertex="1">
                    <mxGeometry x="144" y="220" width="120" height="40" as="geometry"/>
                </mxCell>
                <mxCell id="VhhajVRdx0y6rinKYNHM-10" value="&lt;font style=&quot;vertical-align: inherit&quot;&gt;&lt;font style=&quot;vertical-align: inherit&quot;&gt;&lt;font style=&quot;vertical-align: inherit&quot;&gt;&lt;font style=&quot;vertical-align: inherit&quot;&gt;新規投稿ページ&lt;/font&gt;&lt;/font&gt;&lt;/font&gt;&lt;/font&gt;" style="whiteSpace=wrap;html=1;fillColor=#F2CC8F;strokeColor=#E07A5F;fontColor=#393C56;" parent="1" vertex="1">
                    <mxGeometry x="314" y="120" width="120" height="40" as="geometry"/>
                </mxCell>
                <mxCell id="VhhajVRdx0y6rinKYNHM-16" value="" style="endArrow=classic;html=1;entryX=0.25;entryY=0;entryDx=0;entryDy=0;strokeColor=#E07A5F;fontColor=#393C56;labelBackgroundColor=#F4F1DE;" parent="1" target="VhhajVRdx0y6rinKYNHM-1" edge="1">
                    <mxGeometry width="50" height="50" relative="1" as="geometry">
                        <mxPoint x="344" y="160" as="sourcePoint"/>
                        <mxPoint x="294" y="140" as="targetPoint"/>
                    </mxGeometry>
                </mxCell>
                <mxCell id="VhhajVRdx0y6rinKYNHM-21" style="edgeStyle=orthogonalEdgeStyle;orthogonalLoop=1;jettySize=auto;html=1;exitX=0.5;exitY=0;exitDx=0;exitDy=0;entryX=0.5;entryY=0;entryDx=0;entryDy=0;startSize=0;endSize=6;rounded=0;strokeColor=#E07A5F;fontColor=#393C56;labelBackgroundColor=#F4F1DE;" parent="1" source="VhhajVRdx0y6rinKYNHM-17" target="VhhajVRdx0y6rinKYNHM-10" edge="1">
                    <mxGeometry relative="1" as="geometry">
                        <Array as="points">
                            <mxPoint x="574" y="80"/>
                            <mxPoint x="374" y="80"/>
                        </Array>
                    </mxGeometry>
                </mxCell>
                <mxCell id="VhhajVRdx0y6rinKYNHM-17" value="&lt;font style=&quot;vertical-align: inherit&quot;&gt;&lt;font style=&quot;vertical-align: inherit&quot;&gt;ユーザーの&lt;br&gt;マイページ&lt;/font&gt;&lt;/font&gt;" style="whiteSpace=wrap;html=1;fillColor=#F2CC8F;strokeColor=#E07A5F;fontColor=#393C56;" parent="1" vertex="1">
                    <mxGeometry x="514" y="120" width="120" height="40" as="geometry"/>
                </mxCell>
                <mxCell id="VhhajVRdx0y6rinKYNHM-19" value="" style="endArrow=classic;html=1;exitX=1;exitY=0;exitDx=0;exitDy=0;entryX=0;entryY=1;entryDx=0;entryDy=0;strokeColor=#E07A5F;fontColor=#393C56;labelBackgroundColor=#F4F1DE;" parent="1" source="VhhajVRdx0y6rinKYNHM-1" target="VhhajVRdx0y6rinKYNHM-17" edge="1">
                    <mxGeometry width="50" height="50" relative="1" as="geometry">
                        <mxPoint x="434" y="220" as="sourcePoint"/>
                        <mxPoint x="494" y="160" as="targetPoint"/>
                    </mxGeometry>
                </mxCell>
                <mxCell id="VhhajVRdx0y6rinKYNHM-25" value="" style="edgeStyle=orthogonalEdgeStyle;orthogonalLoop=1;jettySize=auto;html=1;startSize=0;endSize=6;entryX=0.5;entryY=0;entryDx=0;entryDy=0;strokeColor=#E07A5F;fontColor=#393C56;labelBackgroundColor=#F4F1DE;" parent="1" source="VhhajVRdx0y6rinKYNHM-22" edge="1" target="VhhajVRdx0y6rinKYNHM-24">
                    <mxGeometry relative="1" as="geometry">
                        <mxPoint x="470" y="290" as="targetPoint"/>
                        <Array as="points"/>
                    </mxGeometry>
                </mxCell>
                <mxCell id="3" style="edgeStyle=orthogonalEdgeStyle;curved=0;rounded=1;sketch=0;orthogonalLoop=1;jettySize=auto;html=1;exitX=0.25;exitY=0;exitDx=0;exitDy=0;entryX=0.25;entryY=1;entryDx=0;entryDy=0;strokeColor=#E07A5F;fillColor=#F2CC8F;fontColor=#393C56;" edge="1" parent="1" source="VhhajVRdx0y6rinKYNHM-22" target="VhhajVRdx0y6rinKYNHM-17">
                    <mxGeometry relative="1" as="geometry"/>
                </mxCell>
                <mxCell id="6" value="" style="edgeStyle=orthogonalEdgeStyle;curved=0;rounded=1;sketch=0;orthogonalLoop=1;jettySize=auto;html=1;strokeColor=#E07A5F;fillColor=#F2CC8F;fontColor=#393C56;" edge="1" parent="1" source="VhhajVRdx0y6rinKYNHM-22" target="VhhajVRdx0y6rinKYNHM-1">
                    <mxGeometry relative="1" as="geometry"/>
                </mxCell>
                <mxCell id="VhhajVRdx0y6rinKYNHM-22" value="&lt;font style=&quot;vertical-align: inherit&quot;&gt;&lt;font style=&quot;vertical-align: inherit&quot;&gt;投稿詳細ページ&lt;br&gt;&lt;/font&gt;&lt;/font&gt;" style="whiteSpace=wrap;html=1;fillColor=#F2CC8F;strokeColor=#E07A5F;fontColor=#393C56;" parent="1" vertex="1">
                    <mxGeometry x="514" y="220" width="120" height="40" as="geometry"/>
                </mxCell>
                <mxCell id="VhhajVRdx0y6rinKYNHM-24" value="&lt;font style=&quot;vertical-align: inherit&quot;&gt;&lt;font style=&quot;vertical-align: inherit&quot;&gt;投稿の編集ページ&lt;br&gt;&lt;/font&gt;&lt;/font&gt;" style="whiteSpace=wrap;html=1;fillColor=#F2CC8F;strokeColor=#E07A5F;fontColor=#393C56;" parent="1" vertex="1">
                    <mxGeometry x="514" y="290" width="120" height="40" as="geometry"/>
                </mxCell>
                <mxCell id="VhhajVRdx0y6rinKYNHM-26" value="" style="endArrow=classic;html=1;exitX=0.25;exitY=0;exitDx=0;exitDy=0;entryX=0.25;entryY=1;entryDx=0;entryDy=0;strokeColor=#E07A5F;fontColor=#393C56;labelBackgroundColor=#F4F1DE;" parent="1" source="VhhajVRdx0y6rinKYNHM-24" target="VhhajVRdx0y6rinKYNHM-22" edge="1">
                    <mxGeometry width="50" height="50" relative="1" as="geometry">
                        <mxPoint x="414" y="290" as="sourcePoint"/>
                        <mxPoint x="474" y="290" as="targetPoint"/>
                    </mxGeometry>
                </mxCell>
                <mxCell id="VhhajVRdx0y6rinKYNHM-28" value="" style="endArrow=classic;html=1;entryX=0.5;entryY=0;entryDx=0;entryDy=0;strokeColor=#E07A5F;fontColor=#393C56;labelBackgroundColor=#F4F1DE;" parent="1" target="VhhajVRdx0y6rinKYNHM-22" edge="1">
                    <mxGeometry width="50" height="50" relative="1" as="geometry">
                        <mxPoint x="574" y="160" as="sourcePoint"/>
                        <mxPoint x="584" y="150" as="targetPoint"/>
                    </mxGeometry>
                </mxCell>
            </root>
        </mxGraphModel>
    </diagram>
</mxfile>